<?xml version="1.0" encoding="utf-8"?>
<!-- Generator: Adobe Illustrator 18.1.1, SVG Export Plug-In . SVG Version: 6.00 Build 0)  -->
<svg version="1.1" id="Слой_1" xmlns="http://www.w3.org/2000/svg" xmlns:xlink="http://www.w3.org/1999/xlink" x="0px" y="0px"
	 viewBox="0 0 5.6 5.6" enable-background="new 0 0 5.6 5.6" xml:space="preserve">
<g opacity="0.8">
	<g>
		<path fill="#FFFFFF" d="M4.1,0.7l0.8,0.8l-2,2L2.1,2.7L4.1,0.7z M5.5,0.5L5.2,0.1C5,0,4.8,0,4.7,0.1L4.3,0.4l0.8,0.8l0.4-0.4
			C5.6,0.7,5.6,0.6,5.5,0.5z M1.7,3.8c0,0.1,0,0.1,0.1,0.1l0.9-0.2L1.9,2.9L1.7,3.8z"/>
	</g>
	<g>
		<path fill="#FFFFFF" d="M4.2,3.1c-0.1,0-0.1,0-0.2,0v0.8c0,0.7-0.6,1.3-1.3,1.3H1.7C1,5.2,0.4,4.6,0.4,3.9V2.8
			c0-0.7,0.6-1.3,1.3-1.3h0.7c0-0.1,0-0.2,0-0.4H1.7C0.7,1.2,0,1.9,0,2.8v1.1c0,0.9,0.7,1.7,1.7,1.7h1.1c0.9,0,1.7-0.7,1.7-1.7V3.1
			C4.4,3.1,4.3,3.1,4.2,3.1z"/>
	</g>
</g>
</svg>
