<?xml version="1.0" encoding="utf-8"?>
<!-- Generator: Adobe Illustrator 18.1.1, SVG Export Plug-In . SVG Version: 6.00 Build 0)  -->
<svg version="1.1" id="Слой_1" xmlns="http://www.w3.org/2000/svg" xmlns:xlink="http://www.w3.org/1999/xlink" x="0px" y="0px"
	 viewBox="0 0 43 55" enable-background="new 0 0 43 55" xml:space="preserve">
<path fill="#808080" d="M43,2.2C43,1,42,0,40.8,0H2.2C1,0,0,1,0,2.2v50.6C0,54,1,55,2.2,55h38.6c1.2,0,2.2-1,2.2-2.2V2.2z
	 M20.4,53.2c-0.7,0-1.2-0.6-1.2-1.2c0-0.7,0.6-1.2,1.2-1.2c0.7,0,1.2,0.6,1.2,1.2C21.7,52.6,21.1,53.2,20.4,53.2z M38,50H5V5h33V50z
	"/>
</svg>
