<?xml version="1.0" encoding="utf-8"?>
<!-- Generator: Adobe Illustrator 18.1.1, SVG Export Plug-In . SVG Version: 6.00 Build 0)  -->
<svg version="1.1" id="Слой_1" xmlns="http://www.w3.org/2000/svg" xmlns:xlink="http://www.w3.org/1999/xlink" x="0px" y="0px"
	 viewBox="0 0 26 53" enable-background="new 0 0 26 53" xml:space="preserve">
<path fill="#808080" d="M-12,1.2C-12,0-13-1-14.2-1h-38.6C-54-1-55,0-55,1.2v50.6c0,1.2,1,2.2,2.2,2.2h38.6c1.2,0,2.2-1,2.2-2.2V1.2
	z M-34.6,52.2c-0.7,0-1.2-0.6-1.2-1.2c0-0.7,0.6-1.2,1.2-1.2c0.7,0,1.2,0.6,1.2,1.2C-33.3,51.6-33.9,52.2-34.6,52.2z M-17,49h-33V4
	h33V49z"/>
<path fill="#29AAE1" d="M26,3.6c0-2-1.6-3.6-3.6-3.6H3.6C1.6,0,0,1.6,0,3.6v45.8c0,2,1.6,3.6,3.6,3.6h18.8c2,0,3.6-1.6,3.6-3.6V3.6z
	 M15,5.5C15,5.8,14.8,6,14.5,6h-4C10.2,6,10,5.8,10,5.5l0,0C10,5.2,10.2,5,10.5,5h4C14.8,5,15,5.2,15,5.5L15,5.5z M12.7,51.6
	c-1.3,0-2.4-1.1-2.4-2.4c0-1.3,1.1-2.4,2.4-2.4c1.3,0,2.4,1.1,2.4,2.4C15,50.5,14,51.6,12.7,51.6z M23,46H3V7h20V46z"/>
</svg>
