<?xml version="1.0" encoding="utf-8"?>
<!-- Generator: Adobe Illustrator 18.1.1, SVG Export Plug-In . SVG Version: 6.00 Build 0)  -->
<svg version="1.1" id="Слой_1" xmlns="http://www.w3.org/2000/svg" xmlns:xlink="http://www.w3.org/1999/xlink" x="0px" y="0px"
	 viewBox="0 0 62.2 42.4" enable-background="new 0 0 62.2 42.4" xml:space="preserve">
<g>
	<path fill="#808080" d="M62.2,39.4c0-0.2-0.3-0.5-0.4-0.7c-0.3-0.4-0.6-0.8-1-1.1c-1-1.2-2-2.4-3-3.6c-1.5-1.8-3-3.5-4.5-5.3
		c-0.1-0.2-0.1-0.9-0.1-1.1c0-1,0-2,0-3.1c0-3.1,0-6.2,0-9.4c0-3.1,0-6.2,0-9.3c0-1,0-2,0-3c0-0.4,0.1-1.2,0-1.6
		C53-0.1,50.9,0,49.9,0c-2.3,0-4.6,0-6.9,0c-6.5,0-13.1,0-19.6,0C19,0,14.7,0,10.3,0C9.6,0,8.7,0.8,8.7,1.7c0,0.4,0,0.8,0,1.3
		c0,2.5,0,5.1,0,7.6c0,5.7,0,11.5,0,17.2c0,0.2,0.1,0.8,0,1c-0.5,0.6-1,1.2-1.5,1.9c-2,2.4-4,4.8-6,7.1c-0.3,0.3-0.6,0.7-0.9,1
		C0.3,39,0,39.2,0,39.4c0.1,0.5,0.2,1.1,0.2,1.6c0,0.3,0,0.9,0.2,1.1c0.1,0.1,0.2,0.2,0.4,0.2c0.3,0.1,0.3,0.1,0.6,0.1
		c0.1,0,0.1,0,0.2,0c0.1,0,0.1,0,0.2,0c0.4,0,0.8,0,1.3,0c1.7,0,3.5,0,5.2,0c5.9,0,11.7,0,17.6,0c6.6,0,13.2,0,19.8,0
		c4.4,0,8.9,0,13.3,0c0.2,0,1.4-0.1,1.5,0c0,0,0,0,0,0c0,0.2,1.2-0.3,1.1-0.3C61.9,42.2,62.2,39.7,62.2,39.4
		C62.2,39.3,62.2,39.4,62.2,39.4z M51.8,27.9c-0.7-0.1-41.5,0-41.5,0c0-4.7-0.5-25.2-0.5-25.2l42-0.2C51.8,2.4,51.8,24.5,51.8,27.9z
		 M61.8,42.1C61.8,42.1,61.8,42.1,61.8,42.1L61.8,42.1z M62.1,39.6C62.1,39.6,62.1,39.6,62.1,39.6C62.1,39.6,62.1,39.6,62.1,39.6z
		 M62.1,39.6C62.1,39.6,62.1,39.6,62.1,39.6C62.1,39.6,62.1,39.6,62.1,39.6z M62.2,39.5C62.1,39.6,62.2,39.5,62.2,39.5
		C62.2,39.5,62.2,39.5,62.2,39.5z"/>
</g>
</svg>
