<?xml version="1.0" encoding="utf-8"?>
<!-- Generator: Adobe Illustrator 18.1.1, SVG Export Plug-In . SVG Version: 6.00 Build 0)  -->
<svg version="1.1" id="Слой_1" xmlns="http://www.w3.org/2000/svg" xmlns:xlink="http://www.w3.org/1999/xlink" x="0px" y="0px"
	 viewBox="0 0 31.7 62.8" enable-background="new 0 0 31.7 62.8" xml:space="preserve">
<g>
	<path fill="#808080" d="M102.9,50.7c0-0.2-0.3-0.5-0.4-0.7c-0.3-0.4-0.6-0.8-1-1.1c-1-1.2-2-2.4-3-3.6c-1.5-1.8-3-3.5-4.5-5.3
		c-0.1-0.2-0.1-0.9-0.1-1.1c0-1,0-2,0-3.1c0-3.1,0-6.2,0-9.4c0-3.1,0-6.2,0-9.3c0-1,0-2,0-3c0-0.4,0.1-1.2,0-1.6
		c-0.3-1.3-2.4-1.2-3.4-1.2c-2.3,0-4.6,0-6.9,0c-6.5,0-13.1,0-19.6,0c-4.4,0-8.7,0-13.1,0c-0.8,0-1.6,0.8-1.6,1.7c0,0.4,0,0.8,0,1.3
		c0,2.5,0,5.1,0,7.6c0,5.7,0,11.5,0,17.2c0,0.2,0.1,0.8,0,1c-0.5,0.6-1,1.2-1.5,1.9c-2,2.4-4,4.8-6,7.1c-0.3,0.3-0.6,0.7-0.9,1
		c-0.1,0.1-0.4,0.4-0.4,0.6c0.1,0.5,0.2,1.1,0.2,1.6c0,0.3,0,0.9,0.2,1.1c0.1,0.1,0.2,0.2,0.4,0.2c0.3,0.1,0.3,0.1,0.6,0.1
		c0.1,0,0.1,0,0.2,0c0.1,0,0.1,0,0.2,0c0.4,0,0.8,0,1.3,0c1.7,0,3.5,0,5.2,0c5.9,0,11.7,0,17.6,0c6.6,0,13.2,0,19.8,0
		c4.4,0,8.9,0,13.3,0c0.2,0,1.4-0.1,1.5,0c0,0,0,0,0,0c0,0.2,1.2-0.3,1.1-0.3C102.6,53.5,102.8,50.9,102.9,50.7
		C102.9,50.6,102.9,50.7,102.9,50.7z M92.5,39.2c-0.7-0.1-41.5,0-41.5,0c0-4.7-0.5-25.2-0.5-25.2l42-0.2
		C92.5,13.6,92.5,35.8,92.5,39.2z M102.4,53.3C102.4,53.3,102.5,53.3,102.4,53.3L102.4,53.3z M102.7,50.9
		C102.7,50.9,102.7,50.9,102.7,50.9C102.7,50.9,102.7,50.9,102.7,50.9z M102.8,50.9C102.8,50.9,102.8,50.9,102.8,50.9
		C102.8,50.9,102.8,50.9,102.8,50.9z M102.8,50.8C102.8,50.8,102.8,50.8,102.8,50.8C102.8,50.8,102.8,50.8,102.8,50.8z"/>
</g>
<path fill="#808080" d="M31.7,54.2l0-46.2c0-3.4-0.1-5.9-4.1-6.7c-2-0.4-2.8-0.7-5.8-0.9V0.2C16.6-0.3,9.9,0,4.7,1.2
	C0.7,2,0.1,4.4,0.1,7.9L0,54.1c-0.1,3.4,0.8,6.5,5,7.4c1.9,0.4,4.7,0.7,6.7,0.9v0.1c5,0.5,10.9,0.2,16.2-0.9
	C32.2,60.7,31.8,57.7,31.7,54.2z M29.5,55.6h-8.4H10.4H2.1L2,5.6h8.3h10.7h8.5L29.5,55.6z"/>
</svg>
