<?xml version="1.0" encoding="utf-8"?>
<!-- Generator: Adobe Illustrator 18.1.1, SVG Export Plug-In . SVG Version: 6.00 Build 0)  -->
<svg version="1.1" id="Слой_1" xmlns="http://www.w3.org/2000/svg" xmlns:xlink="http://www.w3.org/1999/xlink" x="0px" y="0px"
	 viewBox="0 0 33 63" enable-background="new 0 0 33 63" xml:space="preserve">
<g>
	<path fill="#808080" d="M33,5.3C33,2.4,30.6,0,27.7,0H5.3C2.4,0,0,2.4,0,5.3v52.4C0,60.6,2.4,63,5.3,63h22.4c2.9,0,5.3-2.4,5.3-5.3
		V5.3z M13.8,1h6c0.2,0,0.4,0.3,0.4,0.5S20,2,19.8,2h-6c-0.2,0-0.4-0.3-0.4-0.5S13.6,1,13.8,1z M19.1,60h-4.7c-0.7,0-1.3-0.3-1.3-1
		c0-0.7,0.6-1,1.3-1h4.7c0.7,0,1.3,0.3,1.3,1C20.4,59.7,19.8,60,19.1,60z M31,57H2V5h29V57z"/>
</g>
</svg>
